<?xml version="1.0" encoding="utf-8"?>
<!-- Generator: Adobe Illustrator 19.2.0, SVG Export Plug-In . SVG Version: 6.00 Build 0)  -->
<svg version="1.1" id="Lager_1" xmlns="http://www.w3.org/2000/svg" xmlns:xlink="http://www.w3.org/1999/xlink" x="0px" y="0px"
	 width="50px" height="3000px" viewBox="0 0 50 3000" style="enable-background:new 0 0 50 3000;" xml:space="preserve">
<style type="text/css">
	.st0{fill:#93C8AD;}
	.st1{fill:#FFFFFF;}
	.st2{fill:#92C7AD;}
	.st3{fill:#05534E;}
	.st4{fill:#3B3D3C;}
	.st5{fill:none;stroke:#FFFFFF;stroke-width:2;stroke-miterlimit:10;}
	.st6{fill:#587ACA;}
	.st7{fill:#5DC8FF;}
	.st8{fill:#6F6F6E;}
	.st9{fill:#127BB7;}
	.st10{fill:#DC4A38;}
	.st11{fill:#FF3635;}
</style>
<symbol  id="linkarrow" viewBox="-8.551 -8.55 17.103 17.1">
	<path class="st0" d="M2.549-8.55h-5.1c-3.3,0-6,2.7-6,6v5.1c0,3.3,2.7,6,6,6h5.1c3.3,0,6-2.7,6-6v-5.1
		C8.649-5.75,5.849-8.55,2.549-8.55z"/>
	<path class="st1" d="M3.149-0.65c0.2,0.2,0.3,0.4,0.3,0.7s-0.1,0.5-0.3,0.7l-2.8,2.9c-0.4,0.4-1,0.4-1.4,0l0,0
		c-0.4-0.4-0.4-1,0-1.4l2.1-2.2l-2.1-2.1c-0.4-0.4-0.4-1,0-1.4l0,0c0.4-0.4,1-0.4,1.4,0L3.149-0.65z"/>
</symbol>
<symbol  id="linkarrow_2" viewBox="-8.55 -8.55 17.1 17.1">
	<path class="st2" d="M2.55-8.55h-5.1c-3.3,0-6,2.7-6,6v5.1c0,3.3,2.7,6,6,6h5.1c3.3,0,6-2.7,6-6v-5.1
		C8.55-5.85,5.85-8.55,2.55-8.55z"/>
	<path class="st1" d="M3.15-0.75c0.2,0.2,0.3,0.4,0.3,0.7s-0.1,0.5-0.3,0.7l-2.8,2.9c-0.4,0.4-1,0.4-1.4,0l0,0c-0.4-0.4-0.4-1,0-1.4
		l2.1-2.2l-2.1-2.1c-0.4-0.4-0.4-1,0-1.4l0,0c0.4-0.4,1-0.4,1.4,0L3.15-0.75z"/>
</symbol>
<symbol  id="linkarrow_dark" viewBox="-8.55 -8.55 17.1 17.1">
	<path class="st3" d="M2.55-8.55h-5.1c-3.3,0-6,2.7-6,6v5.1c0,3.3,2.7,6,6,6h5.1c3.3,0,6-2.7,6-6v-5.1
		C8.55-5.85,5.85-8.55,2.55-8.55z"/>
	<path class="st1" d="M3.15-0.75c0.2,0.2,0.3,0.4,0.3,0.7s-0.1,0.5-0.3,0.7l-2.8,2.9c-0.4,0.4-1,0.4-1.4,0l0,0c-0.4-0.4-0.4-1,0-1.4
		l2.1-2.2l-2.1-2.1c-0.4-0.4-0.4-1,0-1.4l0,0c0.4-0.4,1-0.4,1.4,0L3.15-0.75z"/>
</symbol>
<g id="Lager_9">
	
		<use xlink:href="#linkarrow"  width="17.103" height="17.1" x="-8.551" y="-8.55" transform="matrix(0.9998 0 0 -0.9998 8.6048 8.5483)" style="overflow:visible;"/>
</g>
<g id="Lager_8">
	
		<use xlink:href="#linkarrow"  width="17.103" height="17.1" x="-8.551" y="-8.55" transform="matrix(1.4952 0 0 -1.4952 12.7866 612.8894)" style="overflow:visible;"/>
</g>
<g id="Lager_7">
	
		<use xlink:href="#linkarrow_dark"  width="17.1" height="17.1" x="-8.55" y="-8.55" transform="matrix(1 0 0 -1 8.6877 298.4556)" style="overflow:visible;"/>
</g>
<g id="Lager_6">
	<path class="st4" d="M4.748,906.998v0.9c0,0.3-0.2,0.5-0.5,0.5h-0.9c-0.3,0-0.5-0.2-0.5-0.5v-0.9c0-0.3,0.2-0.5,0.5-0.5h0.9
		C4.548,906.598,4.748,906.798,4.748,906.998z M4.348,910.298h-1c-0.3,0-0.5,0.2-0.5,0.5v0.9c0,0.3,0.2,0.5,0.5,0.5h0.9
		c0.3,0,0.5-0.2,0.5-0.5v-0.9C4.748,910.498,4.548,910.298,4.348,910.298z M7.948,906.598h-0.9c-0.3,0-0.5,0.2-0.5,0.5v0.9
		c0,0.3,0.2,0.5,0.5,0.5h0.9c0.3,0,0.5-0.2,0.5-0.5v-0.9C8.448,906.798,8.248,906.598,7.948,906.598z M7.948,910.298h-0.9
		c-0.3,0-0.5,0.2-0.5,0.5v0.9c0,0.3,0.2,0.5,0.5,0.5h0.9c0.3,0,0.5-0.2,0.5-0.5v-0.9C8.448,910.498,8.248,910.298,7.948,910.298z
		 M11.648,906.598h-0.9c-0.3,0-0.5,0.2-0.5,0.5v0.9c0,0.3,0.2,0.5,0.5,0.5h0.9c0.3,0,0.5-0.2,0.5-0.5v-0.9
		C12.148,906.798,11.948,906.598,11.648,906.598z M11.648,910.298h-0.9c-0.3,0-0.5,0.2-0.5,0.5v0.9c0,0.3,0.2,0.5,0.5,0.5h0.9
		c0.3,0,0.5-0.2,0.5-0.5v-0.9C12.148,910.498,11.948,910.298,11.648,910.298z M3.348,902.898h0.9c0.3,0,0.5-0.2,0.5-0.5v-1.8
		c0-0.3-0.2-0.5-0.5-0.5h-0.9c-0.3,0-0.5,0.2-0.5,0.5v1.8C2.948,902.698,3.148,902.898,3.348,902.898z M14.948,903.798v9.2
		c0,1-0.8,1.8-1.8,1.8h-11.2c-1,0-1.8-0.8-1.8-1.8v-9.2c0-1,0.8-1.8,1.8-1.8h0.5v0.5c0,0.5,0.4,0.9,0.9,0.9h0.9
		c0.5,0,0.9-0.4,0.9-0.9v-0.5h4.6v0.5c0,0.5,0.4,0.9,0.9,0.9h0.9c0.5,0,0.9-0.4,0.9-0.9v-0.5h0.5
		C14.048,901.998,14.948,902.798,14.948,903.798z M13.948,905.698c0-0.5-0.4-0.9-0.9-0.9h-11.1c-0.5,0-0.9,0.4-0.9,0.9v7.4
		c0,0.5,0.4,0.9,0.9,0.9h11.1c0.5,0,0.9-0.4,0.9-0.9V905.698z M10.748,902.898h0.9c0.3,0,0.5-0.2,0.5-0.5v-1.8
		c0-0.3-0.2-0.5-0.5-0.5h-0.9c-0.3,0-0.5,0.2-0.5,0.5v1.8C10.348,902.698,10.548,902.898,10.748,902.898z"/>
</g>
<g id="Lager_5">
	
		<use xlink:href="#linkarrow_2"  width="17.1" height="17.1" x="-8.55" y="-8.55" transform="matrix(-1.275670e-010 0.9471 0.9471 1.275670e-010 8.2354 1208.5513)" style="overflow:visible;"/>
</g>
<g id="minus">
	<g id="Lager_10">
		<g>
			<g>
				<g>
					<circle class="st3" cx="14.148" cy="1489.798" r="13.9"/>
				</g>
				<line class="st5" x1="6.148" y1="1489.898" x2="22.148" y2="1489.898"/>
			</g>
		</g>
	</g>
</g>
<g id="plus">
	<g id="Lager_10_kopia">
		<g>
			<g>
				<g>
					<circle class="st3" cx="14.148" cy="1764.798" r="13.9"/>
				</g>
				<line class="st5" x1="6.148" y1="1764.898" x2="22.148" y2="1764.898"/>
				<line class="st5" x1="14.148" y1="1756.898" x2="14.148" y2="1772.898"/>
			</g>
		</g>
	</g>
</g>
<g>
	<path class="st6" d="M31,2095c0,8.284-6.716,15-15,15l0,0c-8.284,0-15-6.716-15-15l0,0c0-8.284,6.716-15,15-15l0,0
		C24.284,2080,31,2086.716,31,2095L31,2095z"/>
	<path class="st1" d="M20,2088h-2.307c0,0-2.446,0.043-3.074,2.49c0,0-0.227,1.51-0.196,2.51H12v2h2v7h3v-7h3v-2h-3
		c0,0,0-0.964,0-1.695s0.975-1.305,2.104-1.305H20V2088z"/>
</g>
<g>
	<path class="st7" d="M15.207,2299.542c8.284,0,15,6.716,15,15s-6.716,15-15,15s-15-6.716-15-15S6.923,2299.542,15.207,2299.542z"/>
	<path class="st1" d="M21.149,2310.552c0,0,1.168-0.091,1.636-0.435c0,0-0.112,0.396-1.518,1.648c0,0,0.473,6.759-6.735,8.416
		c0,0-3.656,0.767-6.305-1.191c0,0,2.772,0.484,4.333-1.212c0,0-2.013,0.02-2.649-2c0,0,0.76,0.162,1.212-0.04
		c0,0-2.28-0.464-2.239-2.908c0,0,0.616,0.444,1.171,0.364c0,0-2.054-1.717-0.781-3.858c0,0,2.752,3.2,6.162,3.01
		c-0.059-0.229-0.091-0.469-0.091-0.717c0-1.591,1.312-2.881,2.93-2.881c0.818,0,1.557,0.329,2.089,0.861
		c0.39,0.007,1.192-0.062,1.992-0.626C22.357,2308.981,22.403,2309.598,21.149,2310.552z"/>
</g>
<g>
	<g>
		<path class="st8" d="M16.252,2532.439v-0.031c-0.006,0.011-0.014,0.022-0.021,0.031H16.252z"/>
		<path class="st9" d="M15.353,2518.542c-8.285,0-15,6.716-15,15c0,8.285,6.715,15,15,15c8.284,0,15-6.715,15-15
			C30.353,2525.258,23.637,2518.542,15.353,2518.542z M11,2541H8v-9h3V2541z M9.651,2530H9.629c-1.079,0-1.776-0.885-1.776-1.813
			c0-0.948,0.72-1.743,1.818-1.743c1.101,0,1.778,0.83,1.798,1.778C11.47,2529.15,10.772,2530,9.651,2530z M23,2541h-3v-5.465
			c0-1.3-0.646-2.188-1.811-2.188c-0.887,0-1.634,0.601-1.866,1.177c-0.085,0.207-0.323,0.493-0.323,0.784V2541h-3v-9h3v0.408
			c1-0.661,1.392-1.597,3.098-1.597c2.115,0,3.902,1.381,3.902,4.352V2541z"/>
	</g>
	<rect x="8" y="2532" class="st1" width="3" height="9"/>
	<path class="st1" d="M9.651,2530H9.629c-1.079,0-1.776-0.885-1.776-1.813c0-0.948,0.72-1.743,1.818-1.743
		c1.101,0,1.778,0.83,1.798,1.778C11.47,2529.15,10.772,2530,9.651,2530z"/>
	<path class="st1" d="M23,2541h-3v-5.465c0-1.3-0.646-2.188-1.811-2.188c-0.887,0-1.634,0.601-1.866,1.177
		c-0.085,0.207-0.323,0.493-0.323,0.784V2541h-3v-9h3v0.408c1-0.661,1.392-1.597,3.098-1.597c2.115,0,3.902,1.381,3.902,4.352V2541z
		"/>
</g>
<g>
	<g>
		<path class="st10" d="M12.454,2747.761c-1.191-0.035-1.991,1.163-1.784,2.726c0.205,1.566,1.338,2.659,2.53,2.695
			c1.191,0.035,1.876-0.972,1.671-2.538C14.665,2749.081,13.645,2747.798,12.454,2747.761z"/>
		<path class="st10" d="M12.955,2756.385c-1.776-0.02-3.28,1.121-3.28,2.445c0,1.349,1.283,2.474,3.058,2.474
			c2.497,0,3.366-1.055,3.366-2.406c0-0.163-0.02-0.322-0.057-0.476c-0.196-0.763-0.972-1.183-1.937-1.853
			C13.755,2756.455,13.369,2756.389,12.955,2756.385z"/>
		<path class="st10" d="M15.5,2739.542c-8.284,0-15,6.716-15,15c0,8.285,6.716,15,15,15c8.285,0,15-6.715,15-15
			C30.5,2746.258,23.785,2739.542,15.5,2739.542z M16.646,2751.039c0,0.978-0.541,1.535-1.306,2.132
			c-0.747,0.584-0.888,0.713-0.888,1.209c0,0.423,0.892,0.995,1.302,1.303c1.427,1.071,1.717,1.716,1.717,3.055
			c0,1.672-1.801,3.318-4.729,3.318c-2.569,0-4.737-1.051-4.737-2.723c0-1.696,1.798-3.468,4.367-3.468
			c0.28,0,0.536-0.009,0.802-0.009c-0.352-0.34-0.635-0.636-0.635-1.153c0-0.308,0.097-0.601,0.234-0.863
			c-0.139,0.009-0.282,0.018-0.428,0.018c-2.11,0-3.339-1.004-3.339-2.863c0-1.82,1.87-2.996,4.113-2.996c1.156,0,4.421,0,4.421,0
			l-0.988,1h-1.161C16.211,2749,16.646,2749.974,16.646,2751.039z M23,2751h-2v2h-1v-2h-2v-1h2v-2h1v2h2V2751z"/>
	</g>
	<path class="st1" d="M15.755,2755.625c-0.41-0.308-1.302-0.938-1.302-1.361c0-0.496,0.141-0.74,0.888-1.324
		c0.764-0.597,1.306-1.424,1.306-2.402c0-1.066-0.435-1.539-1.254-2.539h1.161l0.988-1c0,0-3.265,0-4.421,0
		c-2.243,0-4.113,1.676-4.113,3.496c0,1.858,1.229,3.352,3.339,3.352c0.146,0,0.289-0.004,0.428-0.013
		c-0.137,0.262-0.234,0.558-0.234,0.865c0,0.516,0.284,0.813,0.635,1.153c-0.266,0-0.522,0.008-0.802,0.008
		c-2.569,0-4.367,1.769-4.367,3.465c0,1.672,2.168,2.716,4.737,2.716c2.928,0,4.729-1.661,4.729-3.333
		C17.471,2757.37,17.182,2756.697,15.755,2755.625z M10.67,2750.488c-0.207-1.564,0.593-2.761,1.784-2.727
		c1.191,0.037,2.211,1.32,2.416,2.884c0.205,1.565-0.48,2.573-1.671,2.538C12.007,2753.146,10.875,2752.053,10.67,2750.488z
		 M12.732,2761.303c-1.775,0-3.058-1.124-3.058-2.474c0-1.324,1.504-2.465,3.28-2.445c0.414,0.004,0.8,0.07,1.15,0.183
		c0.965,0.67,1.741,1.089,1.937,1.853c0.037,0.154,0.057,0.313,0.057,0.476C16.099,2760.249,15.229,2761.303,12.732,2761.303z"/>
	<polygon class="st1" points="23,2751 21,2751 21,2753 20,2753 20,2751 18,2751 18,2750 20,2750 20,2748 21,2748 21,2750 23,2750 	
		"/>
</g>
<g>
	<path class="st11" d="M15.281,2959.309c8.284,0,15,6.716,15,15s-6.716,15-15,15s-15-6.716-15-15S6.997,2959.309,15.281,2959.309z"
		/>
	<path class="st1" d="M11,2967.397l10.39,6.975L11,2981.348V2967.397z"/>
</g>
</svg>
